<svg id="Layer_1" data-name="Layer 1" xmlns="http://www.w3.org/2000/svg" viewBox="0 0 41.36 5.65"><path d="M6.88,20.86h.17s.1,0,.15,0,.1,0,.14,0a.53.53,0,0,1,.25.05l.25.07.22.08s.08.08.14.07.28.17.41.28a2.79,2.79,0,0,1,.32.28l.09.1c-.13.12-.25.24-.39.35l-.18.17-.15.13-.14.12a1.75,1.75,0,0,0-.2.19l0,0c0-.07-.1-.1-.15-.15a1.48,1.48,0,0,0-.53-.31l-.23,0a1,1,0,0,0-.25,0,1.23,1.23,0,0,0-.46.1,1.24,1.24,0,0,0-.48.34,1.73,1.73,0,0,0-.3.59,1.25,1.25,0,0,0,0,.19,1.92,1.92,0,0,1,0,.24,1.3,1.3,0,0,0,.17.66,1.14,1.14,0,0,0,.3.39,1.37,1.37,0,0,0,.5.24l.22,0a.65.65,0,0,0,.24,0,2.18,2.18,0,0,0,.44-.11,2.6,2.6,0,0,0,.4-.23A2,2,0,0,0,8,24.51a3.08,3.08,0,0,0,.27.24c.08.06.14.14.22.2l.23.2c.08.06.14.14.22.2l.14.11L9,25.53l-.26.26a2,2,0,0,1-.4.29l-.18.09L8,26.25l-.2.07-.12,0a.23.23,0,0,0-.12,0s-.08,0-.12,0-.08,0-.13,0a.78.78,0,0,1-.22,0c-.14,0-.27,0-.41,0l-.2,0c-.06,0-.13,0-.19,0a.75.75,0,0,1-.26,0l-.33-.1a2.48,2.48,0,0,1-.37-.17,3.87,3.87,0,0,1-.43-.27,2.52,2.52,0,0,1-.45-.41,1.69,1.69,0,0,1-.28-.38A2.12,2.12,0,0,1,4,24.85a2.23,2.23,0,0,1-.16-.43A1.84,1.84,0,0,1,3.8,24s0,0,0,0v-.53h0a2,2,0,0,1,0-.35,2.38,2.38,0,0,0,.05-.26c.07-.17.12-.35.2-.51a2.19,2.19,0,0,1,.45-.63l.21-.2c.14-.11.29-.19.43-.28a1.61,1.61,0,0,1,.36-.15,1.42,1.42,0,0,1,.4-.12,1,1,0,0,1,.29-.05s.11,0,.15,0a.26.26,0,0,1,.15,0h.35Z" transform="translate(-3.77 -20.83)" style="fill:#457bbf"/><ellipse cx="3.04" cy="0.01" rx="0.1" ry="0.02" style="fill:#67c4ab"/><path d="M11.63,26.46h-.15a1.23,1.23,0,0,1-.19,0c-.06,0-.13,0-.18,0a1.47,1.47,0,0,1-.46-.11,1.57,1.57,0,0,1-.45-.22,3.55,3.55,0,0,1-.31-.23,2.38,2.38,0,0,1-.39-.45.52.52,0,0,1-.1-.18c0-.07-.07-.13-.09-.2a1.46,1.46,0,0,1-.07-.19,1.28,1.28,0,0,1-.05-.27c0-.06,0-.13,0-.2s0-.09,0-.13,0-.23,0-.34a4.61,4.61,0,0,1,.15-.53c.06-.13.12-.26.19-.38a1.3,1.3,0,0,1,.18-.23,2.42,2.42,0,0,1,.33-.31l.15-.1a2.6,2.6,0,0,1,.63-.27l.41-.1a3.48,3.48,0,0,1,.72,0,.86.86,0,0,1,.17,0c.06,0,.12,0,.17,0a3.25,3.25,0,0,1,.42.11,5.14,5.14,0,0,1,.51.29l.26.2c.08.07.14.15.21.22a2.26,2.26,0,0,1,.25.38,1.58,1.58,0,0,1,.15.48s0,.1,0,.15a.45.45,0,0,1,0,.16v.35A1.78,1.78,0,0,1,14,25a1.48,1.48,0,0,1-.12.29,1.23,1.23,0,0,1-.23.33s-.05.08-.09.11a2.53,2.53,0,0,1-.52.39c-.09,0-.18.11-.27.15a2.53,2.53,0,0,1-.36.12,1.36,1.36,0,0,1-.29.06,1.53,1.53,0,0,1-.3,0A1.08,1.08,0,0,0,11.63,26.46Zm.85-2.25V24c0-.05,0-.1-.05-.15a1,1,0,0,0-.12-.27.69.69,0,0,0-.17-.17.77.77,0,0,0-.38-.14h-.2a.48.48,0,0,0-.26.06.8.8,0,0,0-.32.25,1.24,1.24,0,0,0-.15.33c0,.06,0,.11,0,.16a.27.27,0,0,0,0,.13.5.5,0,0,1,0,.12l0,.13a1,1,0,0,0,.24.41.57.57,0,0,0,.18.12.79.79,0,0,0,.32.1h.16a.54.54,0,0,0,.25-.06.61.61,0,0,0,.14-.07.93.93,0,0,0,.14-.14.89.89,0,0,0,.21-.51Z" transform="translate(-3.77 -20.83)" style="fill:#457bbf"/><path d="M32.13,24.14v.17a.34.34,0,0,1,0,.14s0,.1,0,.14a.67.67,0,0,1,0,.24c0,.06,0,.12,0,.18s-.1.22-.16.33l-.14.22a2.09,2.09,0,0,1-.2.22,2.13,2.13,0,0,1-.43.31,1.82,1.82,0,0,1-.31.16l-.31.11-.15,0-.12,0-.12,0s-.09,0-.12,0-.12,0-.18,0a2,2,0,0,0-.34,0c-.05,0-.11,0-.16,0l-.15,0a1.63,1.63,0,0,1-.3-.07,1.82,1.82,0,0,1-.3-.11,1,1,0,0,1-.23-.11l0,0a1.61,1.61,0,0,1-.54-.43,1.55,1.55,0,0,1-.24-.33,1.62,1.62,0,0,1-.1-.18,2.19,2.19,0,0,1-.15-.43c0-.08,0-.16-.05-.23a3,3,0,0,1,0-.52.75.75,0,0,1,0-.26c0-.11.07-.21.11-.32a2.14,2.14,0,0,1,.2-.4,2,2,0,0,1,.38-.44,2.14,2.14,0,0,1,.39-.28,1.73,1.73,0,0,1,.39-.18L29,22l.46-.07c.14,0,.28,0,.42,0a1.27,1.27,0,0,1,.28,0l.26.06a2.17,2.17,0,0,1,.62.24,1.65,1.65,0,0,1,.38.27,1.37,1.37,0,0,1,.22.2,1.93,1.93,0,0,1,.28.36,1.78,1.78,0,0,1,.18.43.49.49,0,0,1,0,.11,2.34,2.34,0,0,0,0,.26.75.75,0,0,1,0,.15Zm-1.64.08v-.11s0-.07,0-.1a.85.85,0,0,0-.11-.34,1.09,1.09,0,0,0-.24-.24.9.9,0,0,0-.47-.15.46.46,0,0,0-.2,0l-.2.08a.71.71,0,0,0-.14.1l-.13.14a1,1,0,0,0-.15.33,1.5,1.5,0,0,0,0,.29.87.87,0,0,0,.09.36.84.84,0,0,0,.64.51.89.89,0,0,0,.55-.11.93.93,0,0,0,.37-.44A1.37,1.37,0,0,0,30.49,24.22Z" transform="translate(-3.77 -20.83)" style="fill:#457bbf"/><path d="M19.18,26.31l0,0H17.56V24a1.53,1.53,0,0,0-.07-.36.88.88,0,0,0-.22-.25.57.57,0,0,0-.38-.11.6.6,0,0,0-.32.07.61.61,0,0,0-.31.36.8.8,0,0,0-.05.26v2.34c-.09,0-1.32,0-1.62,0V24s0-.08,0-.13,0-.09,0-.14a1.42,1.42,0,0,1,0-.2l.06-.17a2.38,2.38,0,0,1,.24-.51c.06-.08.13-.15.18-.23a1.13,1.13,0,0,1,.26-.23,1.16,1.16,0,0,1,.32-.2,1.83,1.83,0,0,1,.32-.14l.22-.06a1.65,1.65,0,0,1,.38-.05c.05,0,.1,0,.16,0a2.42,2.42,0,0,0,.38,0,2.49,2.49,0,0,1,.47.12,1,1,0,0,1,.35.12,1.29,1.29,0,0,1,.32.19,1.69,1.69,0,0,1,.47.49c0,.06.08.12.11.18s.08.19.11.28a1.24,1.24,0,0,1,.09.38c.05,0,0,.1,0,.15a.77.77,0,0,1,0,.15,6.6,6.6,0,0,1,0,.77v1.53Z" transform="translate(-3.77 -20.83)" style="fill:#457bbf"/><path d="M20.1,23.3h-.65V22.07H23v1.22H21.72v1.42a.38.38,0,0,0,.14.31.27.27,0,0,0,.19.08.67.67,0,0,0,.2,0l.19,0,.28-.12a5.36,5.36,0,0,1,.26.54c.09.18.16.36.24.54a2.16,2.16,0,0,1-.35.21,2.35,2.35,0,0,1-.42.15l-.26.05c-.11,0-.22,0-.32,0a1.71,1.71,0,0,1-.32,0,1.89,1.89,0,0,1-.4-.08,1.15,1.15,0,0,1-.43-.21,1.2,1.2,0,0,1-.44-.53,1.42,1.42,0,0,1-.11-.35c0-.11,0-.21-.05-.31a2.17,2.17,0,0,1,0-.36Z" transform="translate(-3.77 -20.83)" style="fill:#457bbf"/><path d="M34.31,21v5.37h-1.6c0-.1,0-5,0-5.37Z" transform="translate(-3.77 -20.83)" style="fill:#467bbe"/><path d="M25.23,26.34h-1.6v-.12c0-.53,0-1.07,0-1.61,0-.1,0-.19,0-.28V24a1.38,1.38,0,0,1,0-.29,2.53,2.53,0,0,1,.07-.38c0-.06,0-.13.06-.2s.05-.11.07-.18a.74.74,0,0,1,.14-.22,1.86,1.86,0,0,1,.22-.27,1.39,1.39,0,0,1,.39-.28.55.55,0,0,1,.24-.12,1.12,1.12,0,0,1,.26-.08l.24-.05a1.94,1.94,0,0,1,.24,0l.09,0h.09c.11,0,.22,0,.33,0a1.91,1.91,0,0,1,.33.06c.1,0,.21.05.31.09a2.42,2.42,0,0,1,.45.24l.11.08c-.1.19-.21.37-.32.54s-.2.35-.33.52l-.39-.14A1.09,1.09,0,0,0,26,23.3l-.11,0a.57.57,0,0,0-.58.38.42.42,0,0,0,0,.1,2.29,2.29,0,0,0,0,.25v2.33Z" transform="translate(-3.77 -20.83)" style="fill:#457bbf"/><path d="M38.12,26.35H34.69a.85.85,0,0,1,.06-.19c0-.1.08-.2.13-.31a4.69,4.69,0,0,0,.18-.45,1.42,1.42,0,0,1,.08-.18c0-.08.07-.15.1-.23s.06-.17.09-.24.1-.24.15-.36.13-.29.19-.45.1-.22.15-.34l.09-.24,0,0,0,0a2.53,2.53,0,0,0,.12.23l.39.52.37.51c0,.05.06.11.13.11s0,0,0,.06L36.9,25h.32c0,.09.05.14.09.2a2.23,2.23,0,0,1,.19.24,3.37,3.37,0,0,1,.21.31,3.21,3.21,0,0,1,.21.3l0,0a1,1,0,0,1,.13.16A.13.13,0,0,1,38.12,26.35Z" transform="translate(-3.77 -20.83)" style="fill:#477bbe"/><path d="M40.1,24.53a3.45,3.45,0,0,0,.14.34c0,.11.09.21.13.32s.09.22.14.33.09.23.14.34.08.17.12.26a.3.3,0,0,0,.08.08,1,1,0,0,0,0-.24.83.83,0,0,0,0-.22,1.62,1.62,0,0,1,0-.22h0s0,.07.06.09.1.17.18.23.23.3.32.46v.07h-.79a.35.35,0,0,0,0-.14l-.08-.12-.15-.22a1.73,1.73,0,0,1-.17-.21c0-.08-.12-.14-.16-.22a1.24,1.24,0,0,0-.17-.23c0-.05,0-.11-.1-.15s-.11-.18-.2-.25a3.93,3.93,0,0,0-.29-.42.83.83,0,0,1-.11-.15c-.05-.09-.12-.16-.18-.25l-.2-.27s0-.08-.06-.1a1.57,1.57,0,0,1-.19-.26c-.07-.07-.11-.16-.18-.24s-.17-.26-.28-.37L38,22.64a1.19,1.19,0,0,1-.16-.23.13.13,0,0,0-.08-.08l0-.09a2.15,2.15,0,0,0-.18-.24,1.53,1.53,0,0,0-.11-.16.29.29,0,0,1-.1-.12c0-.06-.07-.08-.09-.13a1.74,1.74,0,0,0-.19-.26,2.43,2.43,0,0,0-.14-.2l-.07,0A.31.31,0,0,1,37,21h.53s0,.05,0,.08l.08.1.19.27c.08.08.12.19.2.27s0,.08.07.12l.27.36a1.39,1.39,0,0,0,.15.19.41.41,0,0,1,.07.11l.29.4a5.58,5.58,0,0,1,.39.56s.08.06.1.1.16.22.23.33a.71.71,0,0,0,.1.14l.13.18a2.83,2.83,0,0,1,.2.28l.06.07Z" transform="translate(-3.77 -20.83)" style="fill:#4ba4c5"/><path d="M36.86,21.1l.07,0a2.43,2.43,0,0,1,.14.2,1.74,1.74,0,0,1,.19.26c0,.05.08.07.09.13a.29.29,0,0,0,.1.12,1.53,1.53,0,0,1,.11.16,2.15,2.15,0,0,1,.18.24l0,.09a.13.13,0,0,1,.08.08,1.19,1.19,0,0,0,.16.23l.08.13c.11.11.18.25.28.37s.11.17.18.24a1.57,1.57,0,0,0,.19.26s0,.07.06.1L39,24c.06.09.13.16.18.25a.83.83,0,0,0,.11.15,3.93,3.93,0,0,1,.29.42c.09.07.12.18.2.25s.06.1.1.15a1.24,1.24,0,0,1,.17.23c0,.08.11.14.16.22a1.73,1.73,0,0,0,.17.21l.15.22.08.12a.35.35,0,0,1,0,.14h-.52a.22.22,0,0,0-.07-.17c-.06-.09-.13-.17-.18-.25s-.07-.11-.11-.15a3.4,3.4,0,0,1-.23-.3s0-.07,0-.1-.26-.33-.38-.51S39,24.8,39,24.74a3,3,0,0,0-.26-.36,1.26,1.26,0,0,0-.2-.27,1.87,1.87,0,0,0-.2-.29,1,1,0,0,1-.18-.28l0-.06H38c0-.18-.12-.34-.17-.51a1.43,1.43,0,0,1-.08-.22v0a.11.11,0,0,0,0,.09c-.05,0-.07,0-.09-.07l-.17-.25a4,4,0,0,1-.26-.35L37,21.92a1.18,1.18,0,0,0-.13-.18l-.1-.12,0-.09h-.06c0-.11.09-.22.13-.32Z" transform="translate(-3.77 -20.83)" style="fill:#449dcb"/><path d="M42.59,20.88c.13,0,.26,0,.38,0l.16,0h.16s.06,0,.09,0V21c.11,0,.13.14.2.21s.08.17.15.24h.05l0,0a.76.76,0,0,0,.16.26.58.58,0,0,1,.11.18.25.25,0,0,1,.14.18s.08.07.1.12a1,1,0,0,0,.18.23l0,.06c0,.12.15.19.2.3s.08.07.09.12.08.07.1.13a.06.06,0,0,0,.08.06s0,.1,0,.14a2.44,2.44,0,0,1-.14.28c0,.08-.09.15-.14.23s0,0-.06,0a.11.11,0,0,1-.07-.09l-.15-.23a2.06,2.06,0,0,0-.32-.41v0L44,22.88a1.19,1.19,0,0,0-.16-.23s0,0,0,0l-.09-.13-.23-.33s0-.09-.11-.1l0-.09-.19-.24a2.07,2.07,0,0,0-.17-.24s0-.07-.07-.1-.08-.14-.13-.2-.15-.17-.23-.26Z" transform="translate(-3.77 -20.83)" style="fill:#7bc79a"/><path d="M44.8,26.37h-.88V26.3c-.05-.06-.08-.13-.13-.18s-.15-.22-.23-.32a2.35,2.35,0,0,0-.19-.25.26.26,0,0,1-.09-.12q-.12-.18-.24-.33a1.61,1.61,0,0,0-.27-.36v0a.69.69,0,0,1-.11-.13c-.1-.13-.19-.26-.29-.41v0h0a1,1,0,0,1,.19-.17.87.87,0,0,1,.11-.09l.1-.08.13-.11h0a.86.86,0,0,1,.07.1.41.41,0,0,0,.1.13,1.22,1.22,0,0,0,.24.32.56.56,0,0,1,.1.15l.09.14a.24.24,0,0,1,.1.19l0,0c-.12.06-.23.14-.35.21a.1.1,0,0,0-.07.07h.77s0,.06,0,.09a.6.6,0,0,1,.09.13,1.18,1.18,0,0,0,.13.18.86.86,0,0,0,.07.1l.07.11c.05.06.08.14.16.18s0,0,0,0,.11.13.11.21.12.18.21.23Z" transform="translate(-3.77 -20.83)" style="fill:#62c4ac"/><path d="M42.59,20.88v.05c.08.09.16.17.23.26s.08.14.13.2,0,.07.07.1a2.07,2.07,0,0,1,.17.24l.19.24,0,.09c.06,0,.08.06.11.1l.23.33.09.13s0,0,0,0a1.19,1.19,0,0,1,.16.23l.11.12v0a2.06,2.06,0,0,1,.32.41l.15.23a.11.11,0,0,0,.07.09v.06l-.25.23s0,0-.06,0,0-.09-.06-.11a.14.14,0,0,1,0-.11.87.87,0,0,1-.2-.23.76.76,0,0,0-.08-.11l-.1-.14a.2.2,0,0,0-.09-.11.08.08,0,0,1-.06-.07.53.53,0,0,0-.13-.2.73.73,0,0,1-.08-.09h-.05V22.6a.1.1,0,0,1,0-.07.58.58,0,0,0-.37-.35.93.93,0,0,0-.29-.05.57.57,0,0,1-.13,0s0,0,0,0a1.06,1.06,0,0,1-.1-.12.9.9,0,0,0-.2-.26s0-.06,0-.07l-.17-.24s0-.11-.1-.13-.1-.14-.16-.19,0,0,0,0,.07,0,.08-.05a.65.65,0,0,0,.2,0l.2-.05h.13Z" transform="translate(-3.77 -20.83)" style="fill:#75c69e"/><path d="M40.1,24.53H40L40,24.46a2.83,2.83,0,0,0-.2-.28L39.65,24a.71.71,0,0,1-.1-.14c-.07-.11-.16-.21-.23-.33s-.07-.06-.1-.1a5.58,5.58,0,0,0-.39-.56l-.29-.4a.41.41,0,0,0-.07-.11,1.39,1.39,0,0,1-.15-.19l-.27-.36s0-.08-.07-.12-.12-.19-.2-.27l-.19-.27-.08-.1s0-.05,0-.08h.63a.09.09,0,0,0,0,.05l0,.07a.83.83,0,0,1,.11.15,1.48,1.48,0,0,1,.21.3c.06,0,.07.11.12.16s.21.28.32.42.07.11.11.15,0,0,.05.05,0,0,0,.06h.06l.09.22c0,.06.05.12.08.19s.13.31.19.47.09.22.14.33.13.31.19.47,0,.11.08.17A1.94,1.94,0,0,0,40.1,24.53Z" transform="translate(-3.77 -20.83)" style="fill:#50abc0"/><path d="M42.32,24.13h0v0c.1.15.19.28.29.41a.69.69,0,0,0,.11.13v0a1.61,1.61,0,0,1,.27.36q.12.15.24.33a.26.26,0,0,0,.09.12,2.35,2.35,0,0,1,.19.25c.08.1.14.22.23.32s.08.12.13.18v.07h-.77a.17.17,0,0,0,0-.1s-.06-.1-.09-.15a1.07,1.07,0,0,1-.19-.28c-.06,0-.07-.11-.11-.16s-.17-.2-.25-.31,0-.07,0-.1l-.08-.09a.27.27,0,0,0-.07-.08s0-.07-.06-.1,0,0,0,0a1.14,1.14,0,0,1-.22-.32.81.81,0,0,0-.12-.14h0a1.66,1.66,0,0,1,.14-.13c.07,0,.12-.1.19-.15Z" transform="translate(-3.77 -20.83)" style="fill:#5cbeb1"/><path d="M41.85,24.51h0a.81.81,0,0,1,.12.14,1.14,1.14,0,0,0,.22.32s0,0,0,0,0,.08.06.1a.27.27,0,0,1,.07.08l.08.09s0,.07,0,.1.17.21.25.31,0,.12.11.16a1.07,1.07,0,0,0,.19.28c0,.05.06.11.09.15a.17.17,0,0,1,0,.1h-.78V26.3L42.12,26v0l-.29-.4a2.51,2.51,0,0,0-.25-.32l0,0c-.05-.12-.15-.21-.2-.32s.1-.09.15-.13a2.11,2.11,0,0,1,.22-.17Z" transform="translate(-3.77 -20.83)" style="fill:#56b7b7"/><path d="M45,23.1a.06.06,0,0,1-.08-.06c0-.06-.08-.07-.1-.13s-.07-.08-.09-.12-.16-.18-.2-.3l0-.06a1,1,0,0,1-.18-.23c0-.05-.07-.08-.1-.12a.25.25,0,0,0-.14-.18.58.58,0,0,0-.11-.18.76.76,0,0,1-.16-.26l0,0h-.05c-.07-.07-.08-.18-.15-.24s-.09-.18-.2-.21V20.9h.07l.28.07.4.16a1.47,1.47,0,0,1,.37.24s.06,0,.08.07a1.66,1.66,0,0,1,.4.61,2,2,0,0,1,.09.35,1.64,1.64,0,0,1,0,.22,1.47,1.47,0,0,1,0,.21,2.61,2.61,0,0,1-.06.27Z" transform="translate(-3.77 -20.83)" style="fill:#81c996"/><path d="M38.05,23.48h.06l0,.06a1,1,0,0,0,.18.28,1.87,1.87,0,0,1,.2.29,1.26,1.26,0,0,1,.2.27,3,3,0,0,1,.26.36c0,.06.09.1.12.15s.25.35.38.51,0,.07,0,.1a3.4,3.4,0,0,0,.23.3s.07.1.11.15.12.16.18.25a.22.22,0,0,1,.07.17h-.49s0-.06,0-.08a1.53,1.53,0,0,0-.17-.27,3.06,3.06,0,0,1-.21-.29c-.08-.12-.17-.22-.25-.34a1.1,1.1,0,0,1-.18-.26c-.06-.06-.1-.16-.19-.2v0s0,0,0-.06a2.86,2.86,0,0,1-.15-.41L38.24,24c-.05-.13-.08-.26-.14-.38A.49.49,0,0,1,38.05,23.48Z" transform="translate(-3.77 -20.83)" style="fill:#4298ce"/><path d="M41.36,24.89c0,.11.15.2.2.32l0,0a2.51,2.51,0,0,1,.25.32l.29.4v0l.25.31v.07h-.92V26.3c-.09-.16-.24-.29-.32-.46s-.1-.17-.18-.23,0-.06-.06-.09h0a.76.76,0,0,1,.35-.52l.12-.1Z" transform="translate(-3.77 -20.83)" style="fill:#51aebe"/><path d="M44.8,26.37v-.06c-.09,0-.13-.16-.21-.23s-.08-.13-.11-.21,0,0,0,0-.11-.12-.16-.18l-.07-.11a.86.86,0,0,1-.07-.1,1.18,1.18,0,0,1-.13-.18.6.6,0,0,0-.09-.13s0-.06,0-.09h1.23v1.32Z" transform="translate(-3.77 -20.83)" style="fill:#6dc5a4"/><path d="M37,24.75c-.07,0-.1-.06-.13-.11l-.37-.51-.39-.52a2.53,2.53,0,0,1-.12-.23l0,0a.2.2,0,0,1,0-.07c.06-.12.11-.24.16-.36s0-.05,0-.06l.06,0,0,.08a.83.83,0,0,1,.08.12c.07.1.15.2.21.3l.19.26a1.06,1.06,0,0,1,.1.12,2.61,2.61,0,0,0,.19.27.47.47,0,0,0,.13.15l0,0a0,0,0,0,1,0,0c0,.11-.08.23-.13.34s0,.07,0,.09S37,24.74,37,24.75Z" transform="translate(-3.77 -20.83)" style="fill:#4582c4"/><path d="M42,22.34l0,0a.92.92,0,0,0-.25.19l-.16.13-.84-1,.08-.09.09-.08.36-.26h0s0,.08.05.12a3.39,3.39,0,0,1,.2.28.58.58,0,0,0,.1.12s.06.11.1.14.13.21.22.3,0,.05,0,.08Z" transform="translate(-3.77 -20.83)" style="fill:#67c4ab"/><path d="M43.58,24.71a.24.24,0,0,0-.1-.19l-.09-.14a.56.56,0,0,0-.1-.15,1.22,1.22,0,0,1-.24-.32.41.41,0,0,1-.1-.13.86.86,0,0,0-.07-.1s0,0,0-.05a1.69,1.69,0,0,0,.39-.41h0a.09.09,0,0,0,0,.06,1.12,1.12,0,0,1,.17.21c.07.11.16.2.23.31s.1.13.14.21,0,.05.08.08a1.75,1.75,0,0,0,.16.25c0,.06-.09.09-.14.13l-.36.25Z" transform="translate(-3.77 -20.83)" style="fill:#6dc5a4"/><path d="M42,22.34l0,0s0-.06,0-.08-.12-.22-.22-.3-.05-.1-.1-.14a.58.58,0,0,1-.1-.12,3.39,3.39,0,0,0-.2-.28s0-.09-.05-.12a1.25,1.25,0,0,1,.28-.15,1,1,0,0,1,.3-.09s0,0,0,0,.08.14.16.19.07.09.1.13l.17.24s0,0,0,.07a.9.9,0,0,1,.2.26,1.06,1.06,0,0,0,.1.12s0,0,0,0l-.1,0s-.07,0-.1,0a.87.87,0,0,0-.35.13Z" transform="translate(-3.77 -20.83)" style="fill:#6dc5a4"/><path d="M37.19,24.22l0,0a.47.47,0,0,1-.13-.15,2.61,2.61,0,0,1-.19-.27,1.06,1.06,0,0,0-.1-.12l-.19-.26c-.06-.1-.14-.2-.21-.3a.83.83,0,0,0-.08-.12l0-.08-.06,0a.88.88,0,0,1,0-.15,2.26,2.26,0,0,0,.13-.33s0,0,0,0a.53.53,0,0,1,.13.13.08.08,0,0,0,0,.05c.11.14.22.29.32.44s0,.07.06.09.15.22.24.31a.41.41,0,0,1,.1.13l.08.12.08.09a1.06,1.06,0,0,1-.1.3A1,1,0,0,1,37.19,24.22Z" transform="translate(-3.77 -20.83)" style="fill:#438ccb"/><path d="M37.37,23.72l-.08-.09-.08-.12a.41.41,0,0,0-.1-.13c-.09-.09-.15-.22-.24-.31s0-.06-.06-.09-.21-.3-.32-.44a.08.08,0,0,1,0-.05.53.53,0,0,0-.13-.13c0-.06.06-.09,0-.15a1.44,1.44,0,0,0,.13-.31h0a1.34,1.34,0,0,1,.11.14l.06.08a.27.27,0,0,0,.07.08.78.78,0,0,0,.1.15c.08.09.13.19.21.28a.91.91,0,0,0,.08.13c.06.07.1.15.17.23a1.27,1.27,0,0,0,.21.25,2.17,2.17,0,0,1-.12.36S37.42,23.69,37.37,23.72Z" transform="translate(-3.77 -20.83)" style="fill:#4194d0"/><path d="M38.12,26.35a.13.13,0,0,0,0-.09A1,1,0,0,0,38,26.1l0,0a3.21,3.21,0,0,0-.21-.3,3.37,3.37,0,0,0-.21-.31,2.23,2.23,0,0,0-.19-.24c0-.06-.1-.11-.09-.2h.47a.18.18,0,0,0,0,.1l.21.28.24.35c.09.12.17.24.27.36a1.7,1.7,0,0,1,.1.14,0,0,0,0,0,.06,0v0h-.49Z" transform="translate(-3.77 -20.83)" style="fill:#4582c4"/><path d="M38.59,25v0c.09,0,.13.14.19.2a1.1,1.1,0,0,0,.18.26c.08.12.17.22.25.34a3.06,3.06,0,0,0,.21.29,1.53,1.53,0,0,1,.17.27s.06,0,0,.08-.24,0-.36,0a.66.66,0,0,1-.15,0c-.07,0-.1-.09-.12-.14s-.08-.28-.14-.42-.08-.2-.13-.3a2,2,0,0,1-.09-.22h0v.37l0,0s-.06-.09-.09-.13l-.31-.41V25c.14,0,.29,0,.43,0Z" transform="translate(-3.77 -20.83)" style="fill:#4091ce"/><path d="M37.55,23.23a1.27,1.27,0,0,1-.21-.25c-.07-.08-.11-.16-.17-.23a.91.91,0,0,1-.08-.13c-.08-.09-.13-.19-.21-.28a.78.78,0,0,1-.1-.15.27.27,0,0,1-.07-.08L36.65,22a1.34,1.34,0,0,0-.11-.14v-.06a1.64,1.64,0,0,0,.14-.3h.06l0,.09.1.12a1.18,1.18,0,0,1,.13.18l.18.24a4,4,0,0,0,.26.35l.17.25s0,.07.09.07l-.09.24A.37.37,0,0,1,37.55,23.23Z" transform="translate(-3.77 -20.83)" style="fill:#4298ce"/><path d="M44.12,24.33a1.75,1.75,0,0,1-.16-.25s-.07,0-.08-.08-.1-.14-.14-.21-.16-.2-.23-.31a1.12,1.12,0,0,0-.17-.21.09.09,0,0,1,0-.06l.07-.12a.63.63,0,0,0,.09-.24h.05a.73.73,0,0,0,.08.09.53.53,0,0,1,.13.2.08.08,0,0,0,.06.07.2.2,0,0,1,.09.11l.1.14a.76.76,0,0,1,.08.11.87.87,0,0,0,.2.23.14.14,0,0,0,0,.11s0,.07.06.11,0,.05.06,0a.69.69,0,0,1-.25.23S44.13,24.31,44.12,24.33Z" transform="translate(-3.77 -20.83)" style="fill:#73c6a0"/><path d="M38.16,25v.05l.31.41s.05.1.09.13l0,0v.65a0,0,0,0,1-.06,0,1.7,1.7,0,0,0-.1-.14c-.1-.12-.18-.24-.27-.36l-.24-.35-.21-.28a.18.18,0,0,1,0-.1Z" transform="translate(-3.77 -20.83)" style="fill:#4289c9"/><path d="M39.2,22.38h-.06s0-.05,0-.06,0,0-.05-.05-.07-.1-.11-.15-.2-.29-.32-.42-.06-.12-.12-.16a1.48,1.48,0,0,0-.21-.3.83.83,0,0,0-.11-.15l0-.07a.09.09,0,0,1,0-.05h.43a.51.51,0,0,1,.19.31l.09.2A4.19,4.19,0,0,0,39,22a3.05,3.05,0,0,0,.13.32A.36.36,0,0,1,39.2,22.38Z" transform="translate(-3.77 -20.83)" style="fill:#56b2bb"/><path d="M37.78,22.74h0v0Z" transform="translate(-3.77 -20.83)" style="fill:#56b2bb"/></svg>